<svg xmlns="http://www.w3.org/2000/svg" width="800" height="400" viewBox="0 0 800 400">
<defs>
 <linearGradient id="b1" x1="0" y1="0" x2="1" y2="1"><stop stop-color="#eaf2ff"/><stop offset="1" stop-color="#d8e8ff"/></linearGradient>
 <linearGradient id="b2" x1="0" y1="0" x2="1" y2="1"><stop stop-color="#f6f2ff"/><stop offset="1" stop-color="#eae1ff"/></linearGradient>
 <linearGradient id="b3" x1="0" y1="0" x2="1" y2="1"><stop stop-color="#e9faf3"/><stop offset="1" stop-color="#d3f1e4"/></linearGradient>
 <linearGradient id="b4" x1="0" y1="0" x2="1" y2="1"><stop stop-color="#fff3e8"/><stop offset="1" stop-color="#ffe2c7"/></linearGradient>
</defs>
<!-- Kiko -->
<g transform="translate(0 0)"><rect width="200" height="200" fill="url(#b1)"/><circle cx="100" cy="93" r="58" fill="#e6a26f"/><path d="M46 92 Q45 25 99 25 Q158 22 158 91 Q137 58 102 58 Q71 57 46 92" fill="#17233a"/><circle cx="80" cy="96" r="5" fill="#17202a"/><circle cx="121" cy="96" r="5" fill="#17202a"/><path d="M83 121 Q101 135 119 120" fill="none" stroke="#7d4134" stroke-width="5" stroke-linecap="round"/><path d="M45 192 Q55 145 100 145 Q150 145 158 192" fill="#315f8e"/><path d="M84 149 L100 171 L116 149" fill="#fff"/><circle cx="153" cy="50" r="18" fill="#fff" opacity=".85"/><path d="M153 38 v24 M141 50 h24" stroke="#396fb0" stroke-width="5" stroke-linecap="round"/></g>
<!-- Mara -->
<g transform="translate(200 0)"><rect width="200" height="200" fill="url(#b2)"/><circle cx="100" cy="94" r="57" fill="#e0a174"/><path d="M44 100 Q39 30 96 26 Q160 27 158 105 Q144 58 104 52 Q67 51 44 100" fill="#2b1f24"/><path d="M48 85 Q39 124 55 151" fill="none" stroke="#2b1f24" stroke-width="20"/><path d="M151 83 Q163 121 147 153" fill="none" stroke="#2b1f24" stroke-width="20"/><circle cx="80" cy="98" r="5" fill="#24212b"/><circle cx="121" cy="98" r="5" fill="#24212b"/><path d="M84 122 Q101 131 118 122" fill="none" stroke="#8d4b4c" stroke-width="4" stroke-linecap="round"/><path d="M44 194 Q58 148 100 148 Q145 148 158 194" fill="#60488d"/><circle cx="100" cy="163" r="5" fill="#fff"/></g>
<!-- Mika -->
<g transform="translate(400 0)"><rect width="200" height="200" fill="url(#b3)"/><circle cx="100" cy="93" r="57" fill="#e3a275"/><path d="M46 93 Q40 29 101 28 Q162 29 157 99 Q139 61 99 55 Q67 54 46 93" fill="#32231e"/><path d="M45 90 Q34 132 53 157" fill="none" stroke="#32231e" stroke-width="19"/><path d="M154 88 Q168 130 148 157" fill="none" stroke="#32231e" stroke-width="19"/><circle cx="80" cy="97" r="5" fill="#26201e"/><circle cx="121" cy="97" r="5" fill="#26201e"/><path d="M83 121 Q101 135 120 119" fill="none" stroke="#914d4c" stroke-width="5" stroke-linecap="round"/><path d="M43 194 Q56 147 100 147 Q146 147 159 194" fill="#25745f"/><circle cx="147" cy="157" r="17" fill="#fff" opacity=".88"/><text x="147" y="164" font-family="Arial" font-size="20" font-weight="700" text-anchor="middle" fill="#25745f">¥</text></g>
<!-- Ramon -->
<g transform="translate(600 0)"><rect width="200" height="200" fill="url(#b3)"/><circle cx="100" cy="92" r="58" fill="#dea06f"/><path d="M45 88 Q47 28 102 26 Q157 28 158 91 Q136 57 102 55 Q69 55 45 88" fill="#172630"/><circle cx="80" cy="96" r="5" fill="#17202a"/><circle cx="121" cy="96" r="5" fill="#17202a"/><path d="M83 120 Q100 132 119 120" fill="none" stroke="#764137" stroke-width="5" stroke-linecap="round"/><path d="M43 194 Q55 145 100 145 Q149 145 160 194" fill="#1f6256"/><path d="M142 145 l20 8 v18 q0 16-20 23 q-20-7-20-23 v-18z" fill="#fff" opacity=".9"/><path d="M132 170 l7 7 14-16" fill="none" stroke="#1f6256" stroke-width="5" stroke-linecap="round" stroke-linejoin="round"/></g>
<!-- Jiro -->
<g transform="translate(0 200)"><rect width="200" height="200" fill="url(#b1)"/><circle cx="100" cy="92" r="58" fill="#e2a06e"/><path d="M45 88 Q47 28 102 26 Q157 28 158 91 Q136 57 102 55 Q69 55 45 88" fill="#17233a"/><circle cx="80" cy="96" r="5" fill="#17202a"/><circle cx="121" cy="96" r="5" fill="#17202a"/><path d="M83 120 Q101 133 119 119" fill="none" stroke="#774138" stroke-width="5" stroke-linecap="round"/><path d="M41 194 Q55 145 100 145 Q150 145 160 194" fill="#234d84"/><path d="M130 171 l12-11 9 7 15-20" fill="none" stroke="#fff" stroke-width="5" stroke-linecap="round" stroke-linejoin="round"/><path d="M159 146 l8 1-2 8" fill="none" stroke="#fff" stroke-width="4"/></g>
<!-- Aya -->
<g transform="translate(200 200)"><rect width="200" height="200" fill="url(#b4)"/><circle cx="100" cy="94" r="57" fill="#e1a174"/><path d="M44 99 Q40 31 97 27 Q160 27 158 104 Q142 60 104 53 Q67 51 44 99" fill="#30211f"/><path d="M46 88 Q36 129 54 157" fill="none" stroke="#30211f" stroke-width="19"/><path d="M154 87 Q165 129 147 157" fill="none" stroke="#30211f" stroke-width="19"/><circle cx="80" cy="98" r="5" fill="#211d1c"/><circle cx="121" cy="98" r="5" fill="#211d1c"/><path d="M83 121 Q101 132 119 121" fill="none" stroke="#8a4848" stroke-width="5" stroke-linecap="round"/><path d="M42 194 Q55 147 100 147 Q148 147 159 194" fill="#8b613b"/><path d="M142 151 v30 M126 158 h32 M131 181 h22" stroke="#fff" stroke-width="4" stroke-linecap="round"/><path d="M126 158 l-9 15 h18z M158 158 l-9 15 h18z" fill="none" stroke="#fff" stroke-width="3"/></g>
<!-- Nico -->
<g transform="translate(400 200)"><rect width="200" height="200" fill="url(#b4)"/><circle cx="100" cy="92" r="58" fill="#dfa06f"/><path d="M44 90 Q46 27 101 26 Q159 28 158 93 Q138 58 101 54 Q68 55 44 90" fill="#182334"/><circle cx="80" cy="96" r="5" fill="#17202a"/><circle cx="121" cy="96" r="5" fill="#17202a"/><path d="M83 120 Q101 133 119 120" fill="none" stroke="#774138" stroke-width="5" stroke-linecap="round"/><path d="M42 194 Q56 145 100 145 Q149 145 159 194" fill="#ba632b"/><circle cx="149" cy="159" r="18" fill="#fff" opacity=".9"/><circle cx="149" cy="159" r="5" fill="#ba632b"/><path d="M149 147 v-9 M149 180 v-9 M137 159 h-9 M170 159 h-9" stroke="#ba632b" stroke-width="4" stroke-linecap="round"/></g>
<!-- Bea -->
<g transform="translate(600 200)"><rect width="200" height="200" fill="url(#b1)"/><circle cx="100" cy="94" r="57" fill="#e0a174"/><path d="M44 99 Q40 31 97 27 Q160 27 158 104 Q142 60 104 53 Q67 51 44 99" fill="#2b2024"/><path d="M46 88 Q36 129 54 157" fill="none" stroke="#2b2024" stroke-width="19"/><path d="M154 87 Q165 129 147 157" fill="none" stroke="#2b2024" stroke-width="19"/><circle cx="80" cy="98" r="5" fill="#211d1c"/><circle cx="121" cy="98" r="5" fill="#211d1c"/><path d="M83 121 Q101 131 119 121" fill="none" stroke="#8a4848" stroke-width="5" stroke-linecap="round"/><path d="M42 194 Q55 147 100 147 Q148 147 159 194" fill="#435a7b"/><rect x="129" y="150" width="8" height="26" rx="2" fill="#fff"/><rect x="141" y="140" width="8" height="36" rx="2" fill="#fff"/><rect x="153" y="129" width="8" height="47" rx="2" fill="#fff"/></g>
</svg>